<svg xmlns="http://www.w3.org/2000/svg" xmlns:xlink="http://www.w3.org/1999/xlink" width="50.0032958984375" height="58.00019454956055" viewBox="0 0 50.0032958984375 58.00019454956055" fill="none">
<path d="M49.9998 31.192L49.9998 57.9917L0.0432892 57.9917L0.0432892 31.192L25.0217 10.8777L49.9998 31.192L49.9998 31.192Z"   fill="#FFD15C" >
</path>
<path d="M49.9998 31.1988L25.0214 51.513L0.0432892 31.1988L25.0214 10.8845L49.9998 31.1988L49.9998 31.1988Z"   fill="#F3F3F3" >
</path>
<path d="M17.5216 28.6879C17.5216 28.6879 35.018 21.2262 35.018 8.73467C35.018 3.91234 30.884 0 25.789 0C22.1491 0 19.0043 1.99302 17.5216 4.89602C16.0137 1.99302 12.8681 0 9.22904 0C4.13331 0 0 3.91234 0 8.73467C0 21.2262 17.5216 28.6879 17.5216 28.6879L17.5216 28.6879Z"   fill="url(#linear_fill_c48d3954-efe3-4fba-9c55-b7d53ac8b048)" >
</path>
<path d="M14.8182 32.0632C16.1226 31.9882 16.2763 30.4799 18.3353 31.3493C18.7531 31.7813 19.2805 32.1173 19.8656 32.0571C20.5575 31.9861 21.0207 31.2932 21.0358 30.6408C21.051 29.9884 20.7364 29.3745 20.429 28.7891C20.1477 28.2549 19.867 27.7202 19.5856 27.1854C19.4075 26.8467 19.2177 26.4945 18.8923 26.2714C18.3202 25.8793 17.173 26.0781 16.4804 26.22C16.2885 27.775 15 28.7789 14.7056 29.5496C14.2554 30.4339 14.0007 32.1105 14.8182 32.0632L14.8182 32.0632Z"   fill="url(#linear_fill_87c7dbce-b7e1-4496-90d9-ce8ef87b88bc)" >
</path>
<path d="M19.997 29.9288C17.982 29.9288 16.005 29.6598 15.527 29.5588C15.29 29.5088 15.098 29.3308 15.027 29.0988C14.955 28.8668 15.019 28.6149 15.187 28.4388C15.318 28.3029 18.391 25.1088 21.357 25.1088L21.377 25.1088C22.447 25.1088 23.371 25.5189 24.117 26.3188C25.091 27.3588 24.989 28.1348 24.727 28.5988C24.136 29.6478 22.045 29.9288 19.997 29.9288ZM23.1362 27.2388C23.5562 27.6889 23.5732 27.9058 23.5562 27.9388C23.1562 28.6468 19.6742 28.7368 17.1462 28.4488C18.2582 27.5358 19.9212 26.4488 21.3562 26.4488L21.3762 26.4488C22.0722 26.4488 22.6442 26.7119 23.1362 27.2388Z" fill-rule="evenodd"  fill="url(#linear_fill_7bb047a8-1656-43e0-a5b0-8fde92cbe48e)" >
</path>
<path d="M19.4859 29.5669L15.9339 29.9349C15.9089 29.9359 15.8869 29.9379 15.8639 29.9379L15.8639 29.9379C15.5239 29.9379 15.2339 29.6819 15.1979 29.3379C15.1589 28.9699 15.4259 28.6399 15.7939 28.6019L17.9839 28.3749C17.6309 28.1309 17.1519 27.8799 16.5109 27.6949C16.1549 27.5919 15.9489 27.2219 16.0519 26.8659C16.1539 26.5119 16.5289 26.3079 16.8809 26.4069C19.1929 27.0719 19.9779 28.5289 20.0089 28.5899C20.1119 28.7869 20.1119 29.0209 20.0059 29.2179C19.9009 29.4129 19.7059 29.5439 19.4859 29.5669Z"   fill="url(#linear_fill_528fdacd-c46b-44a2-9336-48b0a874af20)" >
</path>
<path d="M18.1829 38.4419C14.4179 35.1351 17.8349 29.132 17.9819 28.8788C18.1129 28.6546 18.4999 28.5434 18.8439 28.625C19.1909 28.7079 19.3669 28.956 19.2379 29.1789C19.2049 29.2374 15.9249 35.0008 19.2639 37.9329C22.9959 41.2101 20.1919 49.6075 20.0699 49.9635C20.0019 50.1653 19.7249 50.3015 19.4159 50.3015L19.4159 50.3015C19.3689 50.3015 19.3219 50.2983 19.2729 50.2919C18.9119 50.2411 18.6829 50.0117 18.7619 49.7791C18.7899 49.6962 21.5579 41.4074 18.1829 38.4419Z"   fill="url(#linear_fill_670e0fe8-f957-4917-913e-478344801b41)" >
</path>
<path d="M29.8292 5.72076C30.8601 7.16684 31.0427 8.74813 30.2368 9.25249C29.4309 9.75681 27.9425 8.99287 26.9115 7.54679C25.8813 6.10138 25.6987 4.52008 26.5046 4.01572C27.3105 3.5114 28.7989 4.27535 29.8292 5.72076L29.8292 5.72076Z"   fill="#FFFFFF" >
</path>
<path d="M31.9784 40.7082C31.9784 40.7082 44.4151 35.4038 44.4151 26.5245C44.4151 23.0962 41.4766 20.3156 37.8548 20.3156C35.2676 20.3156 33.0317 21.7319 31.9784 23.7959C30.9063 21.7319 28.6705 20.3156 26.0833 20.3156C22.4615 20.3156 19.523 23.0962 19.523 26.5245C19.523 35.4038 31.9784 40.7082 31.9784 40.7082L31.9784 40.7082Z"   fill="url(#linear_fill_7c949b04-0681-4d89-a929-d8ef9410e751)" >
</path>
<path d="M29.973 41.3198C29.6527 41.9485 29.4723 43.1397 30.0531 43.1066L30.0531 43.1066C30.9802 43.0525 31.0899 41.9809 32.553 42.5989C32.8495 42.9065 33.2247 43.1444 33.641 43.1019C34.133 43.0511 34.462 42.559 34.4728 42.0952C34.4836 41.6321 34.26 41.1954 34.0414 40.7796C33.8415 40.399 33.6417 40.019 33.4419 39.6391C33.3149 39.3984 33.1807 39.1482 32.9491 38.9894C32.5422 38.7102 31.7269 38.8521 31.2342 38.9529C31.0978 40.0582 30.1822 40.7715 29.973 41.3198Z"   fill="#FFD15C" >
</path>
<path d="M36.7574 38.965C37.5304 39.79 37.4354 40.417 37.2174 40.805C36.7474 41.637 35.2203 41.855 33.7374 41.855C32.0923 41.855 30.4974 41.585 30.4674 41.585C30.2283 41.535 30.0384 41.357 29.9674 41.125C29.8954 40.893 29.9593 40.6411 30.1274 40.465C30.2234 40.3651 32.4674 38.035 34.6574 38.035L34.6674 38.035C35.4843 38.035 36.1894 38.356 36.7574 38.965ZM35.7765 39.875C35.9294 40.041 35.9945 40.144 36.0265 40.165C35.6335 40.5071 33.7595 40.596 32.1565 40.465C32.8894 39.919 33.8365 39.375 34.6565 39.375L34.6665 39.375C35.1065 39.375 35.4634 39.542 35.7765 39.875Z" fill-rule="evenodd"  fill="url(#linear_fill_ca322f97-a45d-4120-92ba-71d4c4449942)" >
</path>
<path d="M30.9259 41.852C30.9019 41.8541 30.8789 41.8561 30.8569 41.8561L30.8569 41.8561C30.5159 41.8561 30.2269 41.599 30.1899 41.2551C30.1519 40.8871 30.4189 40.558 30.7869 40.519L31.7319 40.422C31.5929 40.3611 31.4369 40.303 31.2629 40.2521C30.9069 40.149 30.7009 39.7781 30.8039 39.4241C30.9049 39.068 31.2789 38.8641 31.6329 38.965C33.3249 39.452 33.9129 40.4971 33.9739 40.6141C34.0769 40.811 34.0769 41.0441 33.9699 41.2421C33.8659 41.4371 33.6709 41.568 33.4509 41.59L30.9259 41.852Z"   fill="url(#linear_fill_40b4eede-5215-4789-a046-e4f93fa6c0b1)" >
</path>
<path d="M30.9169 52.6656L32.257 52.6656C32.1679 50.8654 32.3399 48.7234 33.458 47.5897C36.6069 44.3913 33.5239 40.879 33.3909 40.7306C33.2059 40.5271 32.7949 40.4573 32.4769 40.5714C32.156 40.6875 32.0429 40.9475 32.226 41.151C32.2559 41.1834 35.0519 44.3672 32.32 47.1401C31.041 48.4394 30.83 50.7513 30.9169 52.6656L30.9169 52.6656Z"   fill="url(#linear_fill_ae833139-76f3-4c55-875c-d003d803d434)" >
</path>
<path d="M40.7279 24.383C41.4602 25.4106 41.5901 26.5342 41.0172 26.8932C40.4451 27.2515 39.3867 26.7086 38.6537 25.681C37.9214 24.6527 37.7915 23.5291 38.3644 23.1708C38.9372 22.8125 39.9956 23.3547 40.7279 24.383L40.7279 24.383Z"   fill="#FFFFFF" >
</path>
<path d="M49.9998 31.2002L49.9998 58L0.0432892 58L0.0432892 31.2002L25.0214 51.5145L49.9998 31.2002L49.9998 31.2002Z"   fill="#8AD7F8" >
</path>
<path d="M50 57.9959L29.0644 44.2908C26.636 42.7014 23.4074 42.7014 20.9796 44.2908L0.0432892 57.9959L50 57.9959L50 57.9959Z"   fill="#55C0EB" >
</path>
<defs>
<linearGradient id="linear_fill_c48d3954-efe3-4fba-9c55-b7d53ac8b048" x1="0.0001678466796875" y1="14.34386157989502" x2="35.017730712890625" y2="14.34386157989502" gradientUnits="userSpaceOnUse">
<stop offset="0" stop-color="#FFC2EE"  />
<stop offset="0.8464142680168152" stop-color="#FF61B5"  />
</linearGradient>
<linearGradient id="linear_fill_87c7dbce-b7e1-4496-90d9-ce8ef87b88bc" x1="14.285133361816406" y1="29.052978515625" x2="21.036476135253906" y2="29.052978515625" gradientUnits="userSpaceOnUse">
<stop offset="0" stop-color="#FFC2EE"  />
<stop offset="0.8464142680168152" stop-color="#FF61B5"  />
</linearGradient>
<linearGradient id="linear_fill_7bb047a8-1656-43e0-a5b0-8fde92cbe48e" x1="8.353729248046875" y1="19.937910079956055" x2="17.88147735595703" y2="26.562654495239258" gradientUnits="userSpaceOnUse">
<stop offset="0" stop-color="#F9D50B"  />
<stop offset="1" stop-color="#F2E27E"  />
</linearGradient>
<linearGradient id="linear_fill_528fdacd-c46b-44a2-9336-48b0a874af20" x1="9.699424743652344" y1="23.392833709716797" x2="19.227149963378906" y2="30.017587661743164" gradientUnits="userSpaceOnUse">
<stop offset="0" stop-color="#F9D50B"  />
<stop offset="1" stop-color="#F2E27E"  />
</linearGradient>
<linearGradient id="linear_fill_670e0fe8-f957-4917-913e-478344801b41" x1="2.3795700073242188" y1="32.01808547973633" x2="11.907302856445312" y2="36.27508544921875" gradientUnits="userSpaceOnUse">
<stop offset="0" stop-color="#F9D50B"  />
<stop offset="1" stop-color="#F2E27E"  />
</linearGradient>
<linearGradient id="linear_fill_7c949b04-0681-4d89-a929-d8ef9410e751" x1="19.523086547851562" y1="30.51155662536621" x2="44.414886474609375" y2="30.51155662536621" gradientUnits="userSpaceOnUse">
<stop offset="0" stop-color="#F9D50B"  />
<stop offset="1" stop-color="#F2E27E"  />
</linearGradient>
<linearGradient id="linear_fill_ca322f97-a45d-4120-92ba-71d4c4449942" x1="37.13024139404297" y1="46.361270904541016" x2="38.097900390625" y2="47.99884796142578" gradientUnits="userSpaceOnUse">
<stop offset="0" stop-color="#FFC2EE"  />
<stop offset="0.8464142680168152" stop-color="#FF61B5"  />
</linearGradient>
<linearGradient id="linear_fill_40b4eede-5215-4789-a046-e4f93fa6c0b1" x1="36.45726013183594" y1="48.39725112915039" x2="37.42491912841797" y2="50.034820556640625" gradientUnits="userSpaceOnUse">
<stop offset="0" stop-color="#FFC2EE"  />
<stop offset="0.8464142680168152" stop-color="#FF61B5"  />
</linearGradient>
<linearGradient id="linear_fill_ae833139-76f3-4c55-875c-d003d803d434" x1="32.44983673095703" y1="47.01535415649414" x2="33.41748809814453" y2="48.053741455078125" gradientUnits="userSpaceOnUse">
<stop offset="0" stop-color="#FFC2EE"  />
<stop offset="0.8464142680168152" stop-color="#FF61B5"  />
</linearGradient>
</defs>
</svg>
