<svg xmlns="http://www.w3.org/2000/svg" xmlns:xlink="http://www.w3.org/1999/xlink" width="48" height="49" viewBox="0 0 48 49" fill="none">
<path d="M29.3966 42.8682L32.7489 49L39.3288 49L36.7996 36.5559L29.3966 42.8682L29.3966 42.8682Z"   fill="url(#linear_fill_858fa117-194e-44fb-a7ef-869c522de50c)" >
</path>
<path d="M18.6059 42.8682L15.2535 49L8.67374 49L11.2029 36.5559L18.6059 42.8682L18.6059 42.8682Z"   fill="url(#linear_fill_7cf0d508-c5d2-4b56-8645-8d0a7722c9e9)" >
</path>
<path d="M39.264 11.9799L41.906 6.61239L39.1627 6.354L36.5209 11.7214L39.264 11.9799L39.264 11.9799Z"   fill="url(#linear_fill_99787504-a40f-4094-a23f-7e047dc01cc8)" >
</path>
<path d="M44.2656 3.3605C44.7201 2.83145 44.8972 2.08832 44.655 1.38111C44.2912 0.315439 43.132 -0.253658 42.0654 0.109623C41.3564 0.350658 40.875 0.944604 40.7332 1.62697L44.2656 3.3605L44.2656 3.3605Z"   fill="url(#linear_fill_f9981333-214f-49fa-b523-732ce60253ea)" >
</path>
<path d="M47.3104 12.3163L31.769 4.68944C34.0903 0.91297 36.1183 0.45714 42.0633 3.37513C48.009 6.29242 48.8868 8.17374 47.3104 12.3163L47.3104 12.3163Z"   fill="url(#linear_fill_662af740-bc20-4776-956a-a78129d4b135)" >
</path>
<path d="M44.3228 4.63375L39.6865 2.35876C39.351 2.19438 39.2134 1.78966 39.378 1.45538C39.5426 1.12043 39.948 0.98229 40.2827 1.14667L44.919 3.42234C45.2538 3.58672 45.3922 3.99076 45.2276 4.32571C45.0629 4.66069 44.6576 4.79811 44.3228 4.63375L44.3228 4.63375Z"   fill="url(#linear_fill_bc923531-a0e4-48c4-aa99-f041c6adb4a0)" >
</path>
<path d="M8.7357 11.9799L6.09378 6.61239L8.83702 6.354L11.4788 11.7214L8.7357 11.9799L8.7357 11.9799Z"   fill="url(#linear_fill_ffd3f4fd-14c0-41a5-9282-21cb7041638e)" >
</path>
<path d="M3.73468 3.3605C3.28024 2.83145 3.10385 2.08832 3.34525 1.38111C3.70908 0.315439 4.86836 -0.253658 5.93562 0.109623C6.6439 0.350658 7.12532 0.944604 7.26711 1.62697L3.73468 3.3605L3.73468 3.3605Z"   fill="url(#linear_fill_356854b3-d347-4c37-9218-1cb5ceab9b5c)" >
</path>
<path d="M0.689138 12.3163L16.2313 4.68944C13.9093 0.91297 11.8819 0.45714 5.93625 3.37513C-0.00877275 6.29242 -0.886528 8.17374 0.689138 12.3163L0.689138 12.3163Z"   fill="url(#linear_fill_054b921f-0304-4ad5-b9eb-3cc49e2418a8)" >
</path>
<path d="M3.67928 4.63375L8.31494 2.35876C8.6504 2.19438 8.78874 1.78966 8.62412 1.45538C8.4588 1.12043 8.05417 0.98229 7.71871 1.14667L3.08235 3.42234C2.74757 3.58672 2.60925 3.99076 2.77385 4.32571C2.93848 4.66069 3.3438 4.79811 3.67928 4.63375L3.67928 4.63375Z"   fill="url(#linear_fill_24e02f23-6c88-4e53-a808-bc381329080a)" >
</path>
<path d="M24.0034 46.7844C24.0034 46.7844 44.0713 37.5732 44.0713 21.6911C44.0713 15.2432 38.8407 10.0143 32.3832 10.0143C29.0956 10.0143 26.1228 11.3708 24.0034 13.5525C21.8772 11.3708 18.9044 10.0143 15.6161 10.0143C9.15853 10.0143 3.92871 15.2432 3.92871 21.6911C3.92871 37.9551 24.0034 46.7844 24.0034 46.7844L24.0034 46.7844Z"   fill="#FFFFFF" >
</path>
<path d="M28.7958 22.7186L16.5758 34.9203C16.36 35.1364 16.3593 35.4859 16.5758 35.7021C16.7923 35.9183 17.143 35.9183 17.3588 35.7021L29.5788 23.5004C29.7952 23.2843 29.7952 22.9341 29.5788 22.7186C29.3629 22.5024 29.0123 22.5024 28.7958 22.7186L28.7958 22.7186Z"   fill="#A0F8E6" >
</path>
<path d="M29.6885 33.9618L29.6885 33.9618C29.2555 34.3921 28.5541 34.3914 28.1218 33.9598L23.2123 29.0576C23.0089 28.8545 22.8948 28.579 22.8948 28.2923L22.8948 19.5322C22.8948 18.9279 23.3893 18.4265 24.0022 18.4265C24.6074 18.4265 25.1096 18.9279 25.1096 19.5322L25.1096 27.8192L29.6906 32.3927C30.1249 32.8264 30.1236 33.5295 29.6885 33.9618Z"   fill="#FFD15C" >
</path>
<path d="M24.0054 10.6043C26.402 8.78445 29.3101 7.80429 32.3854 7.80429C40.0513 7.80429 46.2854 14.0364 46.2854 21.6943C46.2854 38.7981 25.7969 48.3937 24.9254 48.7943C24.6321 48.929 24.3215 48.9943 24.0054 48.9943C23.701 48.9943 23.3989 48.9393 23.1154 48.8143C22.2411 48.4303 1.71536 39.1994 1.71536 21.6943C1.71536 14.0364 7.94875 7.80429 15.6154 7.80429C18.6878 7.80429 21.6045 8.78445 24.0054 10.6043ZM25.5956 15.0979C27.3919 13.249 29.8014 12.2279 32.3856 12.2279C37.6084 12.2279 41.8556 16.4694 41.8556 21.6879C41.8556 34.1105 27.7442 42.3461 23.9856 44.3179C20.2249 42.4096 6.14556 34.4096 6.14556 21.6879C6.14556 16.4694 10.392 12.2279 15.6156 12.2279C18.1969 12.2279 20.613 13.2477 22.4156 15.0979C22.8326 15.5261 23.408 15.7679 24.0056 15.7679C24.6052 15.7679 25.1785 15.5268 25.5956 15.0979Z" fill-rule="evenodd"  fill="url(#linear_fill_aa897fa3-51e2-4493-b0cd-6ec472463f7b)" >
</path>
<path d="M27.3387 28.2771C27.3387 30.1163 25.8453 31.6074 24.0034 31.6074C22.1607 31.6074 20.6674 30.1163 20.6674 28.2771C20.6674 26.4379 22.1607 24.9461 24.0034 24.9461C25.8453 24.9461 27.3387 26.4379 27.3387 28.2771L27.3387 28.2771Z"   fill="url(#linear_fill_b610bdae-812a-460e-88c2-4b5dbd2011ec)" >
</path>
<path d="M25.6069 28.2792C25.6069 29.166 24.8868 29.8856 23.9987 29.8856C23.1099 29.8856 22.3898 29.166 22.3898 28.2792C22.3898 27.3917 23.1099 26.6728 23.9987 26.6728C24.8868 26.6728 25.6069 27.3917 25.6069 28.2792L25.6069 28.2792Z"   fill="url(#linear_fill_472cc7ee-6498-4689-8efe-eaa65e1c6b6b)" >
</path>
<defs>
<linearGradient id="linear_fill_858fa117-194e-44fb-a7ef-869c522de50c" x1="29.396591186523438" y1="42.77793884277344" x2="39.328765869140625" y2="42.77793884277344" gradientUnits="userSpaceOnUse">
<stop offset="0" stop-color="#58BCFF"  />
<stop offset="1" stop-color="#84D0FE"  />
</linearGradient>
<linearGradient id="linear_fill_7cf0d508-c5d2-4b56-8645-8d0a7722c9e9" x1="8.673736572265625" y1="42.77793884277344" x2="18.605911254882812" y2="42.77793884277344" gradientUnits="userSpaceOnUse">
<stop offset="0" stop-color="#58BCFF"  />
<stop offset="1" stop-color="#84D0FE"  />
</linearGradient>
<linearGradient id="linear_fill_99787504-a40f-4094-a23f-7e047dc01cc8" x1="36.52091979980469" y1="9.16693115234375" x2="41.905975341796875" y2="9.16693115234375" gradientUnits="userSpaceOnUse">
<stop offset="0" stop-color="#58BCFF"  />
<stop offset="1" stop-color="#84D0FE"  />
</linearGradient>
<linearGradient id="linear_fill_f9981333-214f-49fa-b523-732ce60253ea" x1="40.73307800292969" y1="1.6803817749023438" x2="44.76353454589844" y2="1.6803817749023438" gradientUnits="userSpaceOnUse">
<stop offset="0" stop-color="#58BCFF"  />
<stop offset="1" stop-color="#84D0FE"  />
</linearGradient>
<linearGradient id="linear_fill_662af740-bc20-4776-956a-a78129d4b135" x1="31.76885986328125" y1="6.8970947265625" x2="47.9998779296875" y2="6.8970947265625" gradientUnits="userSpaceOnUse">
<stop offset="0" stop-color="#FFC2EE"  />
<stop offset="0.8464142680168152" stop-color="#FF61B5"  />
</linearGradient>
<linearGradient id="linear_fill_bc923531-a0e4-48c4-aa99-f041c6adb4a0" x1="39.30830383300781" y1="2.890411376953125" x2="45.29701232910156" y2="2.890411376953125" gradientUnits="userSpaceOnUse">
<stop offset="0" stop-color="#58BCFF"  />
<stop offset="1" stop-color="#84D0FE"  />
</linearGradient>
<linearGradient id="linear_fill_ffd3f4fd-14c0-41a5-9282-21cb7041638e" x1="6.093780517578125" y1="9.16693115234375" x2="11.478836059570312" y2="9.16693115234375" gradientUnits="userSpaceOnUse">
<stop offset="0" stop-color="#58BCFF"  />
<stop offset="1" stop-color="#84D0FE"  />
</linearGradient>
<linearGradient id="linear_fill_356854b3-d347-4c37-9218-1cb5ceab9b5c" x1="3.2369537353515625" y1="1.6803817749023438" x2="7.2674407958984375" y2="1.6803817749023438" gradientUnits="userSpaceOnUse">
<stop offset="0" stop-color="#58BCFF"  />
<stop offset="1" stop-color="#84D0FE"  />
</linearGradient>
<linearGradient id="linear_fill_054b921f-0304-4ad5-b9eb-3cc49e2418a8" x1="-0.000091552734375" y1="6.8970947265625" x2="16.230926513671875" y2="6.8970947265625" gradientUnits="userSpaceOnUse">
<stop offset="0" stop-color="#FFC2EE"  />
<stop offset="0.8464142680168152" stop-color="#FF61B5"  />
</linearGradient>
<linearGradient id="linear_fill_24e02f23-6c88-4e53-a808-bc381329080a" x1="2.704620361328125" y1="2.890411376953125" x2="8.693283081054688" y2="2.890411376953125" gradientUnits="userSpaceOnUse">
<stop offset="0" stop-color="#58BCFF"  />
<stop offset="1" stop-color="#84D0FE"  />
</linearGradient>
<linearGradient id="linear_fill_aa897fa3-51e2-4493-b0cd-6ec472463f7b" x1="1.715606689453125" y1="28.40069580078125" x2="46.288116455078125" y2="28.40069580078125" gradientUnits="userSpaceOnUse">
<stop offset="0" stop-color="#FFC2EE"  />
<stop offset="0.8464142680168152" stop-color="#FF61B5"  />
</linearGradient>
<linearGradient id="linear_fill_b610bdae-812a-460e-88c2-4b5dbd2011ec" x1="20.667633056640625" y1="28.276992797851562" x2="27.338729858398438" y2="28.276992797851562" gradientUnits="userSpaceOnUse">
<stop offset="0" stop-color="#FFC2EE"  />
<stop offset="0.8464142680168152" stop-color="#FF61B5"  />
</linearGradient>
<linearGradient id="linear_fill_472cc7ee-6498-4689-8efe-eaa65e1c6b6b" x1="22.38983154296875" y1="28.279067993164062" x2="25.607147216796875" y2="28.279067993164062" gradientUnits="userSpaceOnUse">
<stop offset="0" stop-color="#FFC2EE"  />
<stop offset="0.8464142680168152" stop-color="#FF61B5"  />
</linearGradient>
</defs>
</svg>
