<svg xmlns="http://www.w3.org/2000/svg" xmlns:xlink="http://www.w3.org/1999/xlink" width="58.00364685058594" height="58.00150465965271" viewBox="0 0 58.00364685058594 58.00150465965271" fill="none">
<path d="M52.0922 17.4486C57.6977 36.6935 36.6085 55.3513 36.6085 55.3513C36.6085 55.3513 8.7966 50.9254 3.19115 31.6813C1.12048 24.5704 5.20658 17.1299 12.3197 15.0599C17.3887 13.5849 22.6372 15.2411 25.9885 18.8895C26.8579 14.0134 30.3966 9.79812 35.4655 8.32304C42.5787 6.25316 50.0215 10.3377 52.0922 17.4486L52.0922 17.4486Z"   fill="#FFFFFF" >
</path>
<path d="M36.1915 57.9635C34.9886 57.7722 6.64815 53.0454 0.64148 32.4235C-1.8343 23.9215 3.07644 14.9892 11.5815 12.5135C16.1015 11.1978 20.8195 11.915 24.6615 14.3535C26.5945 10.2339 30.2023 7.08837 34.7215 5.77346C43.2265 3.29771 52.1649 8.20072 54.6415 16.7035C60.6474 37.3247 39.2744 56.5263 38.3615 57.3335C38.0644 57.5963 37.7239 57.7853 37.3515 57.8934C36.9798 58.0015 36.5834 58.0257 36.1915 57.9635ZM13.0572 17.6073C17.0227 16.4533 21.2348 17.6253 24.0372 20.6773C24.7199 21.4199 25.7584 21.7187 26.7272 21.4373C27.6952 21.155 28.4214 20.3494 28.5972 19.3573C29.3242 15.2766 32.2416 12.0219 36.2072 10.8673C41.9029 9.20947 47.8886 12.4924 49.5472 18.1873C53.9668 33.3631 39.6246 48.7153 35.7772 52.4873C30.5014 51.3761 10.1677 46.1497 5.73718 30.9373C4.07864 25.2431 7.36075 19.265 13.0572 17.6073Z" fill-rule="evenodd"  fill="url(#linear_fill_ef95dd17-f198-4c09-9553-0d1c48cf4b0c)" >
</path>
<path d="M20.4864 41.5075L18.5472 42.0712L15.7549 32.4853L17.6949 31.9208L20.4864 41.5075L20.4864 41.5075Z"   fill="url(#linear_fill_f5a33eee-baf1-4b2f-b4ec-514becc8003f)" >
</path>
<path d="M27.9491 38.3184C27.4507 39.2095 26.6735 39.812 25.6191 40.1184C24.5632 40.4255 23.588 40.3328 22.6891 39.8484C21.7926 39.3616 21.1922 38.6153 20.8991 37.6084C20.6059 36.6006 20.7153 35.6449 21.2091 34.7484C21.7052 33.851 22.4739 33.2555 23.5291 32.9483C24.5835 32.6412 25.5687 32.7277 26.4691 33.2183C27.3695 33.709 27.966 34.4614 28.2591 35.4684C28.5531 36.4761 28.4468 37.4257 27.9491 38.3184ZM22.8568 37.0428C22.6912 36.4751 22.7183 35.9584 22.9368 35.5028C23.1561 35.0471 23.5122 34.7497 24.0168 34.6028C24.5199 34.4566 24.9876 34.5153 25.4168 34.7828C25.8437 35.051 26.1412 35.4651 26.3068 36.0328C26.4724 36.6027 26.4445 37.1118 26.2268 37.5628C26.0075 38.0145 25.6399 38.3158 25.1368 38.4628C24.6321 38.6097 24.1752 38.5464 23.7468 38.2828C23.3191 38.0199 23.0224 37.6127 22.8568 37.0428Z" fill-rule="evenodd"  fill="url(#linear_fill_2d4e62f4-9b25-41dc-af83-30411c180677)" >
</path>
<path d="M32.4252 38.0263L27.6439 31.8632L29.6609 31.2761L32.6678 35.1524L33.1234 30.2684L35.1404 29.6814L34.415 37.447L32.4252 38.0263L32.4252 38.0263Z"   fill="url(#linear_fill_04fa154e-a993-43e9-b457-d313e0809e68)" >
</path>
<path d="M40.9492 33.9218C41.6288 33.7243 42.1228 33.3366 42.4292 32.7518L43.8492 33.6118C43.2823 34.5799 42.4736 35.2147 41.4192 35.5218C40.3633 35.8289 39.3994 35.7628 38.5192 35.3118C37.6421 34.8624 37.038 34.0851 36.7192 32.9918C36.4012 31.8985 36.5045 30.9325 37.0192 30.0818C37.5316 29.2327 38.2644 28.6702 39.2192 28.3918C40.1764 28.1134 41.0725 28.1601 41.9092 28.5418C42.7443 28.9236 43.3053 29.6241 43.5992 30.6318L43.8992 31.6618L38.8392 33.1418C39.0102 33.5026 39.2933 33.7503 39.6992 33.8918C40.1066 34.0357 40.5262 34.0454 40.9492 33.9218ZM38.7672 30.6371C39.0168 30.3106 39.3323 30.0891 39.7172 29.9771C40.0998 29.8659 40.4644 29.8801 40.7972 30.0271C41.1292 30.1725 41.3731 30.4482 41.5372 30.8471L38.4872 31.7371C38.4227 31.3274 38.516 30.9629 38.7672 30.6371Z" fill-rule="evenodd"  fill="url(#linear_fill_3be3da08-7d36-4ae6-b157-e991b9793f22)" >
</path>
<path d="M36.2056 10.866C32.8418 11.8449 30.244 14.3207 29.0901 17.5235C30.4524 15.7483 32.3613 14.4241 34.6108 13.7694C40.3026 12.1132 46.2867 15.3968 47.9468 21.098C49.9249 27.8901 48.135 34.7296 45.2044 40.5474C49.0004 34.1853 51.8642 26.167 49.5416 18.1946C47.8815 12.4934 41.8973 9.20897 36.2056 10.866L36.2056 10.866Z"   fill="#F3F3F3" >
</path>
<path d="M32.5255 17.7519C29.6858 20.2393 28.1875 24.5642 24.5866 26.0252C20.3699 27.7165 14.147 26.3876 11.4769 22.6436C10.3478 21.0581 9.79264 19.2145 9.49564 17.3063C9.80356 18.3195 11.6588 20.7237 12.6051 21.2898C9.94973 18.2301 9.24682 14.2777 9.2079 9.43576L9.2079 9.43576C9.48553 13.5258 10.274 17.9439 14.0016 20.2642C17.1803 22.233 23.0765 22.4982 26.1091 20.3606C28.9853 18.3553 30.3748 14.6113 33.1662 12.3641C35.981 10.0811 39.232 8.76469 42.7482 8.65586L42.7482 11.9053C39.0625 12.0982 35.4134 15.2271 32.5255 17.7519Z"   fill="url(#linear_fill_03af06ab-3b52-4d16-ab87-b1ee6acf17e9)" >
</path>
<path d="M53.7157 5.07908C53.9163 5.07908 54.0983 5.07908 54.2927 5.07908C54.0213 5.07908 53.8393 5.07908 53.7157 5.07908L53.7157 5.07908Z"   fill="#415A6B" >
</path>
<path d="M55.1494 24.3474C54.7381 27.5121 52.4303 30.0851 52.1403 33.3462L52.1403 33.3462C51.8261 36.8492 53.2281 40.0014 54.9558 42.8886L50.9444 40.4128L50.7632 45.292C49.023 42.3932 47.6817 39.2651 47.9476 35.7497C48.2011 32.4885 50.5696 29.928 50.956 26.7509C51.7663 20.2644 47.5246 14.3338 41.9666 11.991C42.776 12.3292 44.311 9.56264 45.1811 9.92499C50.7026 12.2686 55.9954 17.8733 55.1494 24.3474Z"   fill="url(#linear_fill_9388dee8-b286-4489-962b-1f44539713d4)" >
</path>
<path d="M41.1069 8.3215C42.5726 7.91639 43.7224 6.14545 45.2169 4.7715C46.5372 3.55693 48.1348 1.55234 50.0569 0.541505C52.3958 -0.760158 53.8319 0.426749 55.0169 2.5915C55.6973 3.51216 56.1682 4.70241 56.6169 5.5515C56.6814 5.67357 56.7699 5.82241 56.8469 5.9515C56.876 6.00039 56.9076 6.05293 56.9412 6.10872C57.3724 6.82478 58.1254 8.07526 57.9869 9.0015C57.5592 12.1647 52.8831 13.3515 50.3669 13.3515C47.154 13.4738 44.8956 12.0847 43.1146 10.9893C42.3703 10.5315 41.7093 10.125 41.0969 9.9015L41.0569 9.8915C40.9341 9.84874 40.9861 9.49764 41.0569 9.1415C41.0569 9.11507 41.0669 9.08798 41.0669 9.0615C41.0661 9.05174 41.0654 9.04198 41.0646 9.03223C41.0373 8.67917 41.0108 8.33587 41.1069 8.3215ZM54.2954 5.12C54.4991 5.134 54.6966 5.17033 54.9454 5.21C53.6057 8.79923 47.7332 9.97974 44.4954 9.07C47.2596 7.74813 50.6349 5.42289 53.5554 5.08L53.7154 5.08C53.8398 5.08 54.024 5.09903 54.2954 5.12Z" fill-rule="evenodd"  fill="url(#linear_fill_1f6450d9-732c-40e7-b6a8-fa913e1bc5a8)" >
</path>
<path d="M54.2943 5.12047C54.5174 5.13447 54.7632 5.09712 54.9778 5.14534C54.9708 5.16712 54.9506 5.18658 54.9428 5.2068C55.5788 5.3133 56.3152 5.48591 56.8478 5.95248L56.8486 5.95248C56.7701 5.82339 56.6838 5.67641 56.6184 5.55434C56.1698 4.70525 55.7017 3.51089 55.0213 2.59023C53.8363 0.425478 52.3994 -0.757963 50.0604 0.543699C48.1383 1.55453 46.5334 3.56144 45.2131 4.77601C43.7186 6.14996 42.5717 7.91506 41.106 8.32017C41.0073 8.33493 41.036 8.69495 41.064 9.05806C41.0633 9.08455 41.0625 9.11018 41.0617 9.13661C40.9909 9.49274 40.9373 9.84888 41.0601 9.89164L41.0928 9.90331C42.2537 9.70659 43.3897 9.4282 44.4954 9.07131C47.2597 7.74942 50.6351 5.42293 53.5556 5.08004L53.5556 5.08004L53.5284 5.08004L53.5556 5.08004C53.6116 5.07458 53.6613 5.08549 53.7173 5.0816C53.8418 5.0808 54.0229 5.09949 54.2943 5.12047Z"   fill="url(#linear_fill_f7ade5ea-3b11-4caf-83e2-bf1067e8fcba)" >
</path>
<path d="M33.612 13.3515C31.0951 13.3515 26.4181 12.1646 25.992 9.0015C25.8529 8.06151 26.6197 6.78691 27.0467 6.07706C27.0732 6.03296 27.0984 5.99103 27.122 5.9515C27.1998 5.82241 27.2867 5.67356 27.352 5.5515C27.7999 4.70241 28.2709 3.51216 28.952 2.5915C30.137 0.426748 31.5723 -0.760158 33.912 0.541504C35.8334 1.55234 37.4417 3.55693 38.762 4.7715C40.2557 6.14468 41.4063 7.91639 42.872 8.3215C42.9708 8.33626 42.9416 8.69919 42.912 9.0615L42.912 9.1415C42.9836 9.49763 43.0349 9.84874 42.912 9.8915L42.882 9.9015C42.2692 10.125 41.6078 10.5317 40.8631 10.9896C39.082 12.0848 36.824 13.4732 33.612 13.3515ZM30.4195 5.08C33.3401 5.42289 36.7161 7.74892 39.4795 9.07C36.2426 9.97975 30.3685 8.80002 29.0295 5.21C29.2792 5.16956 29.4758 5.13476 29.6795 5.12C29.9493 5.09978 30.1351 5.08 30.2595 5.08L30.4195 5.08Z" fill-rule="evenodd"  fill="url(#linear_fill_5cc03f64-6310-47e3-82ad-8a49b1d8f6f8)" >
</path>
<path d="M30.258 5.07908C30.0574 5.07908 29.8755 5.07908 29.6811 5.07908C29.9509 5.07908 30.1336 5.07908 30.258 5.07908L30.258 5.07908Z"   fill="#415A6B" >
</path>
<path d="M42.916 9.13661C42.9875 9.49274 43.0411 9.84888 42.9183 9.89164L42.8857 9.90331C41.7247 9.70659 40.5887 9.4282 39.483 9.07131C36.7196 7.74942 33.3434 5.42293 30.4228 5.08004L30.4228 5.08004L30.45 5.08004L30.4228 5.08004C30.3661 5.07458 30.3171 5.08549 30.2611 5.0816C30.1367 5.0808 29.9548 5.09949 29.6842 5.12047C29.4602 5.13447 29.2145 5.09636 29.0007 5.14615C29.0077 5.16636 29.0256 5.18658 29.0349 5.2068C28.3996 5.3133 27.6625 5.48591 27.1306 5.95248C27.2069 5.82339 27.2947 5.67641 27.36 5.55434C27.8079 4.70525 28.276 3.51089 28.9571 2.59023C30.1414 0.425478 31.5791 -0.757963 33.918 0.543699C35.8409 1.55453 37.4442 3.56144 38.7653 4.77601C40.259 6.14996 41.4067 7.91506 42.8724 8.32017C42.9704 8.33493 42.9432 8.69495 42.9136 9.05806L42.916 9.13661Z"   fill="url(#linear_fill_6852efa5-06d7-400b-9486-8f0483f5382c)" >
</path>
<path d="M44.001 13.1433C42.8176 13.7553 40.9188 13.2615 39.7353 12.648C39.3512 10.8456 39.3621 7.68091 39.8395 5.8598C40.8752 5.48193 43.1947 5.33263 44.2304 5.7113C44.7568 7.71745 44.3953 11.5252 44.001 13.1433L44.001 13.1433Z"   fill="#FFD15C" >
</path>
<defs>
<linearGradient id="linear_fill_ef95dd17-f198-4c09-9553-0d1c48cf4b0c" x1="0.0014801025390625" y1="31.567474126815796" x2="55.701263427734375" y2="31.567474126815796" gradientUnits="userSpaceOnUse">
<stop offset="0" stop-color="#58BCFF"  />
<stop offset="1" stop-color="#84D0FE"  />
</linearGradient>
<linearGradient id="linear_fill_f5a33eee-baf1-4b2f-b4ec-514becc8003f" x1="15.755218505859375" y1="36.996381521224976" x2="20.48651123046875" y2="36.996381521224976" gradientUnits="userSpaceOnUse">
<stop offset="0" stop-color="#FFC2EE"  />
<stop offset="0.8464142680168152" stop-color="#FF61B5"  />
</linearGradient>
<linearGradient id="linear_fill_2d4e62f4-9b25-41dc-af83-30411c180677" x1="20.739044189453125" y1="36.53136229515076" x2="28.419418334960938" y2="36.53136229515076" gradientUnits="userSpaceOnUse">
<stop offset="0" stop-color="#FFC2EE"  />
<stop offset="0.8464142680168152" stop-color="#FF61B5"  />
</linearGradient>
<linearGradient id="linear_fill_04fa154e-a993-43e9-b457-d313e0809e68" x1="27.6436767578125" y1="33.85400176048279" x2="35.140350341796875" y2="33.85400176048279" gradientUnits="userSpaceOnUse">
<stop offset="0" stop-color="#FFC2EE"  />
<stop offset="0.8464142680168152" stop-color="#FF61B5"  />
</linearGradient>
<linearGradient id="linear_fill_3be3da08-7d36-4ae6-b157-e991b9793f22" x1="36.53913879394531" y1="31.96227240562439" x2="43.904266357421875" y2="31.96227240562439" gradientUnits="userSpaceOnUse">
<stop offset="0" stop-color="#FFC2EE"  />
<stop offset="0.8464142680168152" stop-color="#FF61B5"  />
</linearGradient>
<linearGradient id="linear_fill_03af06ab-3b52-4d16-ab87-b1ee6acf17e9" x1="9.207916259765625" y1="17.70282530784607" x2="42.748016357421875" y2="17.70282530784607" gradientUnits="userSpaceOnUse">
<stop offset="0" stop-color="#FFC2EE"  />
<stop offset="0.8464142680168152" stop-color="#FF61B5"  />
</linearGradient>
<linearGradient id="linear_fill_9388dee8-b286-4489-962b-1f44539713d4" x1="41.96644592285156" y1="27.592305898666382" x2="55.23881530761719" y2="27.592305898666382" gradientUnits="userSpaceOnUse">
<stop offset="0" stop-color="#FFC2EE"  />
<stop offset="0.8464142680168152" stop-color="#FF61B5"  />
</linearGradient>
<linearGradient id="linear_fill_1f6450d9-732c-40e7-b6a8-fa913e1bc5a8" x1="40.987060546875" y1="6.678340196609497" x2="58.001434326171875" y2="6.678340196609497" gradientUnits="userSpaceOnUse">
<stop offset="0" stop-color="#FFC2EE"  />
<stop offset="0.8464142680168152" stop-color="#FF61B5"  />
</linearGradient>
<linearGradient id="linear_fill_f7ade5ea-3b11-4caf-83e2-bf1067e8fcba" x1="64.14656066894531" y1="4.952314615249634" x2="80.00776672363281" y2="4.952314615249634" gradientUnits="userSpaceOnUse">
<stop offset="0" stop-color="#FFC2EE"  />
<stop offset="0.8464142680168152" stop-color="#FF61B5"  />
</linearGradient>
<linearGradient id="linear_fill_5cc03f64-6310-47e3-82ad-8a49b1d8f6f8" x1="25.971771240234375" y1="6.678299188613892" x2="42.986175537109375" y2="6.678299188613892" gradientUnits="userSpaceOnUse">
<stop offset="0" stop-color="#FFC2EE"  />
<stop offset="0.8464142680168152" stop-color="#FF61B5"  />
</linearGradient>
<linearGradient id="linear_fill_6852efa5-06d7-400b-9486-8f0483f5382c" x1="54.720245361328125" y1="4.952314615249634" x2="70.58155822753906" y2="4.952314615249634" gradientUnits="userSpaceOnUse">
<stop offset="0" stop-color="#FFC2EE"  />
<stop offset="0.8464142680168152" stop-color="#FF61B5"  />
</linearGradient>
</defs>
</svg>
