<svg xmlns="http://www.w3.org/2000/svg" xmlns:xlink="http://www.w3.org/1999/xlink" width="51" height="43.0003662109375" viewBox="0 0 51 43.0003662109375" fill="none">
<path d="M51 39.7966C51 41.5694 49.5764 43 47.813 43L3.18771 43C1.43448 43 0 41.5694 0 39.7966L0 9.62368C0 7.86185 1.43448 6.42035 3.18771 6.42035L47.813 6.42035C49.5764 6.42035 51 7.86185 51 9.62368L51 9.62368L51 39.7966Z"   fill="url(#linear_fill_ed24984f-8bc4-41bf-a53b-6235430cbf3f)" >
</path>
<path d="M51 17.5369L51 9.62368C51 7.86185 49.5764 6.42035 47.813 6.42035L3.18771 6.42035C1.43448 6.42035 0 7.86185 0 9.62368L0 17.5369L51 17.5369L51 17.5369Z"   fill="#A0F8E6" >
</path>
<ellipse transform="matrix(0.9532020688056946, -0.302333801984787, 0.29965707659721375, 0.9540475010871887, 10.71307373046875, 15.235992431640625)" cx="14.456837458918644" cy="14.514824810883338" rx="14.456837458918644" ry="14.514824810883338"   fill="url(#linear_fill_d7de712d-cc56-4dc6-879b-e3e556075422)" >
</ellipse>
<ellipse cx="28.837371826171875" cy="24.7144775390625" rx="10.623825073242188" ry="10.6759033203125"   fill="#A0F8E6" >
</ellipse>
<path d="M35.0757 24.7117C35.0757 28.1717 32.2844 30.9766 28.8413 30.9766C25.3981 30.9766 22.6068 28.1717 22.6068 24.7117C22.6068 21.2516 25.3981 18.4467 28.8413 18.4467C32.2844 18.4467 35.0757 21.2516 35.0757 24.7117L35.0757 24.7117Z"   fill="url(#linear_fill_732448e1-11ed-4b95-b84d-01e63fcb6086)" >
</path>
<ellipse cx="33.180931091308594" cy="21.995040893554688" rx="2.7001266479492188" ry="2.7133636474609375"   fill="#FFFFFF" >
</ellipse>
<path     fill="#FFD15C"  d="M4.84078 10.404L11.8755 10.404C12.3596 10.404 12.752 10.7964 12.752 11.2805L12.752 13.2937C12.752 13.7777 12.3596 14.1701 11.8756 14.1701L4.84078 14.1701C4.3567 14.1701 3.96428 13.7777 3.96428 13.2936L3.96428 11.2805C3.96428 10.7964 4.3567 10.404 4.84078 10.404Z">
</path>
<path     fill="url(#linear_fill_0bfa55ac-5250-4a4b-a4a9-883e6a14b0fa_0)"  d="M6.78344 3.49768L10.6662 3.49768C11.1736 3.49768 11.5849 3.909 11.5849 4.41638L11.5849 6.42491L5.86464 6.42491L5.86464 4.41648C5.86464 3.90904 6.276 3.49768 6.78344 3.49768Z">
</path>
<path d="M34.6888 0L22.9869 0C21.9591 0 21.0443 0.655042 20.7092 1.63179L19.065 6.419L38.6101 6.419L36.9665 1.63179C36.6315 0.655042 35.7167 0 34.6888 0L34.6888 0Z"   fill="url(#linear_fill_2951ee7d-e8b9-4206-bbc0-39efc16a9ea0)" >
</path>
<defs>
<linearGradient id="linear_fill_ed24984f-8bc4-41bf-a53b-6235430cbf3f" x1="0.0003056526184082031" y1="24.71021270751953" x2="51.00028610229492" y2="24.71021270751953" gradientUnits="userSpaceOnUse">
<stop offset="0" stop-color="#FFC2EE"  />
<stop offset="0.8464142680168152" stop-color="#FF61B5"  />
</linearGradient>
<linearGradient id="linear_fill_d7de712d-cc56-4dc6-879b-e3e556075422" x1="-0.000006884370655861366" y1="14.514792800297196" x2="28.913692151730515" y2="14.514792800297196" gradientUnits="userSpaceOnUse">
<stop offset="0" stop-color="#F9D50B"  />
<stop offset="1" stop-color="#F2E27E"  />
</linearGradient>
<linearGradient id="linear_fill_732448e1-11ed-4b95-b84d-01e63fcb6086" x1="22.60692024230957" y1="24.711639404296875" x2="35.07558059692383" y2="24.711639404296875" gradientUnits="userSpaceOnUse">
<stop offset="0" stop-color="#58BCFF"  />
<stop offset="1" stop-color="#84D0FE"  />
</linearGradient>
<linearGradient id="linear_fill_0bfa55ac-5250-4a4b-a4a9-883e6a14b0fa_0" x1="5.8646368980407715" y1="4.961296081542969" x2="11.584925651550293" y2="4.961296081542969" gradientUnits="userSpaceOnUse">
<stop offset="0" stop-color="#FFC2EE"  />
<stop offset="0.8464142680168152" stop-color="#FF61B5"  />
</linearGradient>
<linearGradient id="linear_fill_2951ee7d-e8b9-4206-bbc0-39efc16a9ea0" x1="19.065214157104492" y1="3.2095565795898438" x2="38.61042404174805" y2="3.2095565795898438" gradientUnits="userSpaceOnUse">
<stop offset="0" stop-color="#FFC2EE"  />
<stop offset="0.8464142680168152" stop-color="#FF61B5"  />
</linearGradient>
</defs>
</svg>
