<svg xmlns="http://www.w3.org/2000/svg" xmlns:xlink="http://www.w3.org/1999/xlink" width="56" height="67.00208282470703" viewBox="0 0 56 67.00208282470703" fill="none">
<path d="M11.0279 20.0799L27.998 5.45005L44.9693 20.0799L48.1641 20.0799L27.998 2.69739L7.83313 20.0799L11.0279 20.0799L11.0279 20.0799Z"   fill="url(#linear_fill_134503c4-7c07-4ac3-bf47-26b848aec43e)" >
</path>
<path d="M32.3557 4.39887C32.3557 6.8273 30.4032 8.79692 27.9941 8.79692C25.585 8.79692 23.6326 6.8273 23.6326 4.39887C23.6326 1.96962 25.585 0 27.9941 0C30.4032 0 32.3557 1.96962 32.3557 4.39887L32.3557 4.39887Z"   fill="#A0F8E6" >
</path>
<path d="M30.1807 4.40232C30.1807 5.61735 29.2033 6.60216 27.9983 6.60216C26.7933 6.60216 25.8159 5.61735 25.8159 4.40232C25.8159 3.18641 26.7933 2.2016 27.9983 2.2016C29.2033 2.2016 30.1807 3.18641 30.1807 4.40232L30.1807 4.40232Z"   fill="url(#linear_fill_3a9f8fe9-84dc-4824-b16e-244ec664624b)" >
</path>
<path d="M56 31.2754C56 54.0016 27.9942 67 27.9942 67C27.9942 67 0 54.0016 0 31.2754C0 22.6011 6.96896 15.5621 15.5712 15.5621C20.6536 15.5621 25.1584 18.0098 27.9942 21.802C30.8291 18.0098 35.3473 15.5621 40.4171 15.5621C49.0194 15.5621 56 22.6011 56 31.2754L56 31.2754Z"   fill="url(#linear_fill_a3265221-b1f6-4235-b354-4e5816523a6b)" >
</path>
<path d="M41.6654 40.7537C41.6654 48.4109 35.5095 54.6184 27.9158 54.6184C20.3221 54.6184 14.1662 48.4109 14.1662 40.7537C14.1662 33.0965 20.3221 26.889 27.9158 26.889C35.5095 26.889 41.6654 33.0965 41.6654 40.7537Z"   fill="#FFFFFF" >
</path>
<ellipse cx="28.332496643066406" cy="41.1739501953125" rx="4.166542053222656" ry="4.201416015625"   fill="#FFFFFF" >
</ellipse>
<path d="M24.6562 27.3421C28.4957 26.501 32.5401 27.22 35.87 29.3378L27.8541 41.9874L24.6562 27.3421Z"   fill="#FFB8E8" >
</path>
<path d="M41.2733 37.5565C41.9995 41.4503 41.1734 45.5068 38.9808 48.8039L26.6657 40.3697L41.2733 37.5565Z"   fill="#FFB8E8" >
</path>
<path d="M30.7986 54.2796C26.9225 54.9287 22.9183 54.0093 19.696 51.7284L28.321 39.493L30.7986 54.2796Z"   fill="#FFB8E8" >
</path>
<path d="M14.5114 43.9093C13.7358 40.0243 14.5108 35.9566 16.6621 32.6307L29.0857 40.908L14.5114 43.9093Z"   fill="#FFB8E8" >
</path>
<path d="M28.4347 33.0984L30.4327 41.3342L26.1036 41.2447L28.4347 33.0984Z"   fill="#FFEB3B" >
</path>
<ellipse cx="28.332473754882812" cy="41.17388916015625" rx="3.3332366943359375" ry="3.36114501953125"   fill="#FF76C1" >
</ellipse>
<path d="M41.6654 40.7537C41.6654 48.4109 35.5095 54.6184 27.9158 54.6184C20.3221 54.6184 14.1662 48.4109 14.1662 40.7537C14.1662 33.0965 20.3221 26.889 27.9158 26.889C35.5095 26.889 41.6654 33.0965 41.6654 40.7537ZM16.0912 40.7537C16.0912 47.3389 21.3852 52.6773 27.9158 52.6773C34.4464 52.6773 39.7405 47.3389 39.7405 40.7537C39.7405 34.1685 34.4464 28.8301 27.9158 28.8301C21.3852 28.8301 16.0912 34.1685 16.0912 40.7537Z" fill-rule="evenodd"  fill="#FFEB3B" >
</path>
<defs>
<linearGradient id="linear_fill_134503c4-7c07-4ac3-bf47-26b848aec43e" x1="7.833132743835449" y1="11.388644695281982" x2="48.164066314697266" y2="11.388644695281982" gradientUnits="userSpaceOnUse">
<stop offset="0" stop-color="#58BCFF"  />
<stop offset="1" stop-color="#84D0FE"  />
</linearGradient>
<linearGradient id="linear_fill_3a9f8fe9-84dc-4824-b16e-244ec664624b" x1="25.81619644165039" y1="4.40195894241333" x2="30.180530548095703" y2="4.40195894241333" gradientUnits="userSpaceOnUse">
<stop offset="0" stop-color="#58BCFF"  />
<stop offset="1" stop-color="#84D0FE"  />
</linearGradient>
<linearGradient id="linear_fill_a3265221-b1f6-4235-b354-4e5816523a6b" x1="0.00024509429931640625" y1="41.28112030029297" x2="55.9998779296875" y2="41.28112030029297" gradientUnits="userSpaceOnUse">
<stop offset="0" stop-color="#FFC2EE"  />
<stop offset="0.8464142680168152" stop-color="#FF61B5"  />
</linearGradient>
</defs>
</svg>
